<?xml version="1.0" encoding="utf-8"?>
<!-- Svg Vector Icons : http://www.onlinewebfonts.com/icon -->
<!DOCTYPE svg PUBLIC "-//W3C//DTD SVG 1.1//EN" "http://www.w3.org/Graphics/SVG/1.1/DTD/svg11.dtd">
<svg version="1.1" xmlns="http://www.w3.org/2000/svg" xmlns:xlink="http://www.w3.org/1999/xlink" x="0px" y="0px" viewBox="0 0 1000 1000" enable-background="new 0 0 1000 1000" xml:space="preserve">
<metadata> Svg Vector Icons : http://www.onlinewebfonts.com/icon </metadata>
<g><path d="M10,554.9V391.3h48c14.4,0,25.8,3.3,34.5,10.2c8.7,6.9,12.9,15.9,12.9,27.3c0,9-2.4,16.8-7.5,23.7c-5.1,6.9-12,11.7-21,14.7v0.3c11.1,1.2,20.1,5.4,26.7,12.6c6.6,7.2,9.9,16.2,9.9,27.3c0,14.1-5.1,25.5-15,34.2c-10.2,8.7-23.1,12.9-38.7,12.9H10V554.9z M31.3,409.9v51.3h19.2c10.2,0,18.3-2.4,24-7.5c5.7-5.1,8.7-11.7,8.7-20.7c0-15.3-10.2-23.1-30.9-23.1H31.3z M31.3,479.3v57h25.2c11.1,0,19.5-2.4,25.5-7.5s9-12.3,9-21.3c0-18.6-12.6-28.2-38.1-28.2H31.3z"/><path d="M135.2,497.6c0-19.2,5.4-34.5,16.2-45.6c10.8-11.1,25.2-16.8,43.8-16.8c17.4,0,31.2,5.4,41.1,16.2c9.9,10.8,15,25.5,15,44.4c0,18.3-5.4,33.3-15.9,44.7s-24.9,17.1-42.6,17.1c-17.4,0-31.5-5.4-41.7-16.5C140.6,530,135.2,515.6,135.2,497.6z M156.5,497c0,13.5,3.3,24,10.2,31.8c6.9,7.8,15.9,11.7,27.3,11.7c11.7,0,20.7-3.9,27-11.4c6.3-7.5,9.3-18.3,9.3-32.4s-3-25.2-9.3-32.7c-6.3-7.5-15.3-11.4-27-11.4c-11.7,0-20.7,3.9-27.6,12C159.8,472.4,156.5,483.2,156.5,497z"/><path d="M272.7,497.6c0-19.2,5.4-34.5,16.2-45.6c10.8-11.1,25.2-16.8,43.8-16.8c17.4,0,31.2,5.4,41.1,16.2s15,25.5,15,44.4c0,18.3-5.4,33.3-15.9,44.7s-24.9,17.1-42.6,17.1c-17.4,0-31.5-5.4-41.7-16.5C277.8,530,272.7,515.6,272.7,497.6z M293.7,497c0,13.5,3.3,24,10.2,31.8c6.9,7.8,15.9,11.7,27.3,11.7c11.7,0,20.7-3.9,27-11.4c6.3-7.5,9.3-18.3,9.3-32.4s-3-25.2-9.3-32.7c-6.3-7.5-15.3-11.4-27-11.4s-20.7,3.9-27.6,12C297.3,472.4,293.7,483.2,293.7,497z"/><path d="M473.9,553.7c-4.5,2.4-10.5,3.6-18.3,3.6c-21,0-31.2-11.7-31.2-34.8v-67.3h-20.1v-17.1h20.1v-28.2l20.7-6.6v34.5h29.1v17.4h-29.1v63.7c0,7.8,1.2,13.2,3.9,16.5s6.9,5.1,12.9,5.1c4.5,0,8.7-1.2,12-3.9V553.7z"/><path d="M491.9,529.7c10.5,7.5,21.6,11.4,33.6,11.4c16.2,0,24.3-5.4,24.3-15.9c0-4.5-1.8-8.1-5.4-11.1c-3.6-3-10.8-6.3-21.3-10.5c-12.9-5.1-21.3-10.5-25.2-15.6c-3.9-5.1-5.7-11.4-5.7-18.6c0-10.2,4.5-18.6,13.2-24.9c8.7-6.3,19.5-9.3,32.4-9.3c9.9,0,19.2,1.8,27.6,5.1v19.8c-8.7-5.7-18.6-8.4-29.7-8.4c-6.6,0-12,1.5-16.2,4.2c-4.2,3-6.3,6.6-6.3,11.4c0,4.5,1.5,8.4,4.5,10.8c3,2.7,9.6,6,19.8,9.9c12.9,4.8,21.9,9.9,26.4,15c4.5,5.1,6.9,11.7,6.9,19.2c0,10.8-4.5,19.2-13.2,25.2s-20.1,9.3-33.9,9.3c-12,0-22.5-2.4-31.5-6.9v-20.1H491.9z"/><path d="M654.6,553.7c-4.5,2.4-10.5,3.6-18.3,3.6c-21,0-31.2-11.7-31.2-34.8v-67.3H585v-17.1h20.1v-28.2l20.7-6.6v34.5h29.1v17.4h-29.4v63.7c0,7.8,1.2,13.2,3.9,16.5s6.9,5.1,12.9,5.1c4.5,0,8.7-1.2,12-3.9v17.1H654.6z"/><path d="M741.7,458.6c-3.3-2.4-8.1-3.6-14.1-3.6c-8.1,0-14.7,3.6-19.8,11.1c-5.1,7.5-7.8,17.4-7.8,29.7v59.1h-20.7V438.1H700v23.7h0.3c6-17.1,16.2-25.8,30.6-25.8c4.8,0,8.4,0.6,10.8,1.5V458.6z"/><path d="M764.5,446.3c11.7-7.2,24.9-10.8,40.2-10.8c28.2,0,42.3,14.7,42.3,44.4v75.1h-20.4v-18h-0.6c-8.1,13.8-20.1,20.7-35.7,20.7c-11.4,0-20.4-3-27-9.3c-6.6-6.3-9.9-14.4-9.9-24.9c0-21.9,12.9-34.5,38.7-38.1l34.5-4.8c0-19.2-7.8-28.5-23.7-28.5c-14.1,0-26.7,4.8-38.4,14.1V446.3z M799,500c-9.6,1.2-16.2,3.6-19.8,7.2s-5.4,8.4-5.4,14.7c0,5.7,2.1,10.2,6,13.5s9,5.4,15.6,5.4c9,0,16.5-3.3,22.2-9.6c5.7-6.3,8.7-14.4,8.7-23.7v-11.1L799,500z"/><path d="M901.7,538.4v70.3H881V438.1h20.7v20.1h0.3c9-15.3,22.5-22.8,40.2-22.8c15,0,26.7,5.1,35.1,15.6c8.4,10.5,12.6,24.6,12.6,42c0,19.5-4.8,35.1-14.4,46.8c-9.6,11.7-22.5,17.7-38.7,17.7c-15,0-26.4-6.3-34.8-19.2H901.7z M901.7,506.6c0,9.6,3,17.4,9.3,24c6.3,6.6,13.8,9.9,23.1,9.9c11.1,0,19.5-4.2,25.8-12.6c6.3-8.4,9.3-20.1,9.3-35.1c0-12.6-3-22.5-8.7-29.7c-5.7-7.2-13.5-10.8-23.7-10.8c-10.2,0-18.6,3.6-25.2,10.8s-9.9,16.5-9.9,27.9V506.6z"/></g>
</svg>